<svg width="504" height="239" viewBox="0 0 504 239" fill="none" xmlns="http://www.w3.org/2000/svg">
<g filter="url(#filter0_d)">
<path d="M466.5 18H37.5C29.2157 18 22.5 24.7157 22.5 33V93C48 91 57.5 135.5 22.5 137.5V198C22.5 206.284 29.2157 213 37.5 213H466.5C474.784 213 481.5 206.284 481.5 198V137C453 137.5 454.5 93 481.5 93V33C481.5 24.7157 474.784 18 466.5 18Z" fill="#EF821E"/>
</g>
<path d="M22 184H482V197C482 205.837 474.837 213 466 213H38C29.1634 213 22 205.837 22 197V184Z" fill="black" fill-opacity="0.27"/>
<rect x="172" y="105" width="233" height="46" fill="black" fill-opacity="0.1" stroke="white" stroke-width="2" stroke-dasharray="7 7"/>
<path d="M222.158 129.756H213.627V138H209.771V118.094H223.225V121.225H213.627V126.639H222.158V129.756ZM234.457 134.896H243.781V138H230.602V118.094H234.457V134.896ZM260.947 133.844H254.973L253.797 138H249.75L256.271 118.094H259.758L266.156 138H262.109L260.947 133.844ZM255.916 130.576H260.045L258.008 123.248L255.916 130.576ZM286.604 121.225H280.465V138H276.609V121.225H270.553V118.094H286.604V121.225ZM313.936 128.197L315.07 118.094H326.117V121.32H318.201L317.723 125.695C318.005 125.531 318.406 125.363 318.926 125.189C319.445 125.016 320.042 124.93 320.717 124.93C321.674 124.93 322.526 125.085 323.273 125.395C324.03 125.695 324.663 126.133 325.174 126.707C325.693 127.281 326.09 127.983 326.363 128.812C326.637 129.642 326.773 130.581 326.773 131.629C326.773 132.522 326.641 133.37 326.377 134.172C326.113 134.974 325.707 135.68 325.16 136.291C324.613 136.902 323.925 137.385 323.096 137.74C322.266 138.096 321.286 138.273 320.156 138.273C319.299 138.273 318.47 138.146 317.668 137.891C316.875 137.635 316.169 137.262 315.549 136.77C314.929 136.277 314.423 135.676 314.031 134.965C313.648 134.245 313.443 133.424 313.416 132.504H317.162C317.253 133.37 317.563 134.04 318.092 134.514C318.63 134.988 319.313 135.225 320.143 135.225C320.653 135.225 321.086 135.129 321.441 134.938C321.806 134.746 322.098 134.482 322.316 134.145C322.544 133.807 322.708 133.406 322.809 132.941C322.918 132.477 322.973 131.975 322.973 131.438C322.973 130.909 322.904 130.426 322.768 129.988C322.64 129.542 322.439 129.159 322.166 128.84C321.893 128.521 321.551 128.275 321.141 128.102C320.73 127.928 320.247 127.842 319.691 127.842C319.318 127.842 318.994 127.874 318.721 127.938C318.447 128.001 318.206 128.083 317.996 128.184C317.786 128.284 317.6 128.402 317.436 128.539C317.271 128.667 317.117 128.803 316.971 128.949L313.936 128.197ZM347.521 130.426C347.521 131.711 347.371 132.846 347.07 133.83C346.779 134.805 346.355 135.626 345.799 136.291C345.243 136.947 344.564 137.444 343.762 137.781C342.96 138.118 342.057 138.287 341.055 138.287C340.061 138.287 339.163 138.118 338.361 137.781C337.559 137.444 336.876 136.947 336.311 136.291C335.755 135.626 335.322 134.805 335.012 133.83C334.711 132.846 334.561 131.711 334.561 130.426V125.668C334.561 124.383 334.711 123.253 335.012 122.277C335.312 121.293 335.741 120.473 336.297 119.816C336.862 119.151 337.541 118.65 338.334 118.312C339.136 117.975 340.034 117.807 341.027 117.807C342.03 117.807 342.932 117.975 343.734 118.312C344.536 118.65 345.215 119.151 345.771 119.816C346.337 120.473 346.77 121.293 347.07 122.277C347.371 123.253 347.521 124.383 347.521 125.668V130.426ZM338.389 128.785L343.693 124.834C343.666 123.494 343.434 122.501 342.996 121.854C342.559 121.206 341.902 120.883 341.027 120.883C340.143 120.883 339.482 121.225 339.045 121.908C338.607 122.592 338.389 123.645 338.389 125.066V128.785ZM343.693 127.418L338.389 131.355C338.434 132.668 338.676 133.643 339.113 134.281C339.551 134.91 340.198 135.225 341.055 135.225C341.948 135.225 342.609 134.878 343.037 134.186C343.475 133.493 343.693 132.431 343.693 131V127.418ZM353.928 121.648C353.928 121.12 354.005 120.623 354.16 120.158C354.324 119.693 354.566 119.288 354.885 118.941C355.213 118.595 355.618 118.322 356.102 118.121C356.594 117.911 357.163 117.807 357.811 117.807C358.476 117.807 359.05 117.911 359.533 118.121C360.025 118.322 360.431 118.595 360.75 118.941C361.069 119.288 361.306 119.693 361.461 120.158C361.625 120.623 361.707 121.12 361.707 121.648V122.701C361.707 123.221 361.625 123.713 361.461 124.178C361.306 124.633 361.069 125.039 360.75 125.395C360.431 125.741 360.03 126.014 359.547 126.215C359.064 126.415 358.494 126.516 357.838 126.516C357.182 126.516 356.607 126.415 356.115 126.215C355.632 126.014 355.227 125.741 354.898 125.395C354.579 125.039 354.338 124.633 354.174 124.178C354.01 123.713 353.928 123.221 353.928 122.701V121.648ZM356.498 122.701C356.498 122.911 356.521 123.116 356.566 123.316C356.612 123.508 356.685 123.681 356.785 123.836C356.895 123.982 357.036 124.1 357.209 124.191C357.382 124.273 357.592 124.314 357.838 124.314C358.084 124.314 358.289 124.273 358.453 124.191C358.626 124.1 358.763 123.982 358.863 123.836C358.964 123.681 359.036 123.508 359.082 123.316C359.128 123.116 359.15 122.911 359.15 122.701V121.648C359.15 121.439 359.128 121.238 359.082 121.047C359.036 120.846 358.959 120.673 358.85 120.527C358.749 120.372 358.613 120.254 358.439 120.172C358.275 120.081 358.066 120.035 357.811 120.035C357.564 120.035 357.359 120.081 357.195 120.172C357.031 120.254 356.895 120.372 356.785 120.527C356.685 120.673 356.612 120.846 356.566 121.047C356.521 121.238 356.498 121.439 356.498 121.648V122.701ZM361.967 133.393C361.967 132.873 362.049 132.381 362.213 131.916C362.377 131.451 362.618 131.046 362.938 130.699C363.266 130.344 363.671 130.066 364.154 129.865C364.646 129.665 365.216 129.564 365.863 129.564C366.529 129.564 367.103 129.665 367.586 129.865C368.078 130.066 368.484 130.344 368.803 130.699C369.122 131.046 369.359 131.451 369.514 131.916C369.678 132.381 369.76 132.873 369.76 133.393V134.459C369.76 134.979 369.682 135.471 369.527 135.936C369.372 136.4 369.131 136.806 368.803 137.152C368.484 137.499 368.083 137.772 367.6 137.973C367.117 138.173 366.547 138.273 365.891 138.273C365.234 138.273 364.66 138.173 364.168 137.973C363.676 137.772 363.266 137.499 362.938 137.152C362.618 136.806 362.377 136.4 362.213 135.936C362.049 135.471 361.967 134.979 361.967 134.459V133.393ZM364.537 134.459C364.537 134.669 364.564 134.874 364.619 135.074C364.674 135.266 364.756 135.439 364.865 135.594C364.984 135.74 365.125 135.858 365.289 135.949C365.462 136.031 365.663 136.072 365.891 136.072C366.173 136.072 366.401 136.031 366.574 135.949C366.747 135.858 366.88 135.74 366.971 135.594C367.062 135.439 367.121 135.266 367.148 135.074C367.176 134.883 367.189 134.678 367.189 134.459V133.393C367.189 133.183 367.167 132.982 367.121 132.791C367.076 132.6 366.998 132.431 366.889 132.285C366.788 132.13 366.652 132.012 366.479 131.93C366.314 131.839 366.109 131.793 365.863 131.793C365.617 131.793 365.408 131.839 365.234 131.93C365.061 132.012 364.924 132.13 364.824 132.285C364.724 132.431 364.651 132.6 364.605 132.791C364.56 132.982 364.537 133.183 364.537 133.393V134.459ZM359.123 135.293L357.264 134.404L364.934 120.35L366.793 121.238L359.123 135.293Z" fill="#FFF9F9"/>
<circle cx="105" cy="112" r="40" fill="black" fill-opacity="0.16"/>
<path d="M115.062 99.1526L115.939 104.786L120.986 107.399L118.441 112.507L121 117.616L115.91 120.228L115.033 125.862L109.44 124.972L105.457 129L101.46 124.913L95.9096 125.847L95.0181 120.17L90 117.572L92.5594 112.464L90.0144 107.399L95.0612 104.757L95.9383 99.1672L101.503 100.101L105.5 96L109.483 100.043L115.062 99.1526ZM101.905 105.21C101.333 105.21 100.785 105.44 100.38 105.851C99.9758 106.261 99.7486 106.818 99.7486 107.399C99.7486 107.98 99.9758 108.536 100.38 108.947C100.785 109.358 101.333 109.588 101.905 109.588C102.477 109.588 103.026 109.358 103.43 108.947C103.835 108.536 104.062 107.98 104.062 107.399C104.062 106.818 103.835 106.261 103.43 105.851C103.026 105.44 102.477 105.21 101.905 105.21ZM109.095 115.426C108.523 115.426 107.974 115.657 107.57 116.068C107.165 116.478 106.938 117.035 106.938 117.616C106.938 118.196 107.165 118.753 107.57 119.164C107.974 119.574 108.523 119.805 109.095 119.805C109.667 119.805 110.215 119.574 110.62 119.164C111.024 118.753 111.251 118.196 111.251 117.616C111.251 117.035 111.024 116.478 110.62 116.068C110.215 115.657 109.667 115.426 109.095 115.426ZM100.338 119.805L112.689 107.268L110.662 105.21L98.3108 117.747L100.338 119.805Z" fill="white"/>
<path d="M118.681 201.019L120.695 193.336H122.966L119.736 204H117.641L114.419 193.336H116.689L118.681 201.019ZM134.954 201.773H131.753L131.123 204H128.955L132.449 193.336H134.317L137.744 204H135.576L134.954 201.773ZM132.259 200.023H134.471L133.379 196.097L132.259 200.023ZM146.473 202.337H151.468V204H144.408V193.336H146.473V202.337ZM159.281 193.336H165.448V194.999H163.368V202.345H165.448V204H159.281V202.345H161.31V194.999H159.281V193.336ZM173.342 204V193.336H176.103C176.811 193.336 177.451 193.458 178.022 193.702C178.599 193.941 179.089 194.278 179.495 194.713C179.905 195.143 180.22 195.658 180.439 196.258C180.664 196.859 180.776 197.518 180.776 198.236V199.115C180.776 199.833 180.664 200.492 180.439 201.092C180.22 201.688 179.91 202.203 179.509 202.638C179.109 203.067 178.628 203.402 178.066 203.641C177.505 203.88 176.885 204 176.206 204H173.342ZM175.415 195.006V202.345H176.206C176.592 202.345 176.936 202.271 177.239 202.125C177.546 201.979 177.805 201.766 178.015 201.488C178.23 201.209 178.393 200.873 178.506 200.477C178.618 200.077 178.674 199.623 178.674 199.115V198.221C178.674 197.743 178.618 197.308 178.506 196.917C178.398 196.522 178.235 196.183 178.015 195.899C177.8 195.616 177.532 195.396 177.209 195.24C176.892 195.084 176.523 195.006 176.103 195.006H175.415ZM210.341 195.013H207.052V204H204.987V195.013H201.742V193.336H210.341V195.013ZM217.517 193.336H223.684V194.999H221.604V202.345H223.684V204H217.517V202.345H219.545V194.999H217.517V193.336ZM233.826 202.337H238.821V204H231.76V193.336H233.826V202.337ZM248.385 202.337H253.38V204H246.319V193.336H248.385V202.337ZM275.254 204V193.336H278.015C278.723 193.336 279.363 193.458 279.934 193.702C280.51 193.941 281.001 194.278 281.406 194.713C281.816 195.143 282.131 195.658 282.351 196.258C282.575 196.859 282.688 197.518 282.688 198.236V199.115C282.688 199.833 282.575 200.492 282.351 201.092C282.131 201.688 281.821 202.203 281.421 202.638C281.02 203.067 280.539 203.402 279.978 203.641C279.416 203.88 278.796 204 278.117 204H275.254ZM277.326 195.006V202.345H278.117C278.503 202.345 278.847 202.271 279.15 202.125C279.458 201.979 279.717 201.766 279.927 201.488C280.141 201.209 280.305 200.873 280.417 200.477C280.53 200.077 280.586 199.623 280.586 199.115V198.221C280.586 197.743 280.53 197.308 280.417 196.917C280.31 196.522 280.146 196.183 279.927 195.899C279.712 195.616 279.443 195.396 279.121 195.24C278.804 195.084 278.435 195.006 278.015 195.006H277.326ZM296.419 199.327H292.039V202.337H297.159V204H289.974V193.336H297.137V195.013H292.039V197.701H296.419V199.327ZM311.82 200.66C311.786 201.197 311.669 201.681 311.468 202.11C311.273 202.54 311.009 202.906 310.677 203.209C310.345 203.512 309.95 203.746 309.491 203.912C309.032 204.073 308.524 204.154 307.967 204.154C307.338 204.154 306.779 204.039 306.29 203.81C305.802 203.575 305.392 203.25 305.06 202.835C304.728 202.416 304.474 201.913 304.298 201.327C304.122 200.741 304.034 200.096 304.034 199.393V197.958C304.034 197.25 304.127 196.603 304.313 196.017C304.498 195.431 304.762 194.928 305.104 194.508C305.445 194.088 305.858 193.763 306.341 193.534C306.83 193.299 307.377 193.182 307.982 193.182C308.568 193.182 309.088 193.265 309.542 193.431C310.001 193.597 310.392 193.834 310.714 194.142C311.036 194.449 311.29 194.825 311.476 195.27C311.661 195.714 311.779 196.214 311.827 196.771H309.777C309.757 196.454 309.708 196.175 309.63 195.936C309.557 195.697 309.447 195.499 309.3 195.343C309.159 195.182 308.978 195.062 308.758 194.984C308.544 194.901 308.285 194.859 307.982 194.859C307.665 194.859 307.389 194.928 307.154 195.064C306.92 195.201 306.725 195.401 306.569 195.665C306.417 195.929 306.305 196.253 306.232 196.639C306.158 197.02 306.122 197.455 306.122 197.943V199.393C306.122 200.443 306.268 201.219 306.561 201.722C306.859 202.225 307.328 202.477 307.967 202.477C308.505 202.477 308.929 202.335 309.242 202.052C309.554 201.764 309.728 201.3 309.762 200.66H311.82ZM325.536 199.327H321.157V202.337H326.276V204H319.091V193.336H326.254V195.013H321.157V197.701H325.536V199.327ZM336.06 193.336L337.07 197.342L338.22 193.336H340.776V204H338.887V200.843L338.975 195.855L337.576 200.484H336.558L335.305 196.053L335.393 200.843V204H333.504V193.336H336.06ZM348.077 204V193.336H351.659C352.24 193.336 352.767 193.395 353.241 193.512C353.719 193.629 354.127 193.807 354.464 194.046C354.801 194.286 355.059 194.588 355.24 194.955C355.426 195.321 355.518 195.753 355.518 196.251C355.513 196.749 355.379 197.196 355.116 197.591C354.857 197.987 354.473 198.287 353.966 198.492C354.273 198.57 354.539 198.688 354.764 198.844C354.989 199 355.174 199.186 355.321 199.4C355.472 199.61 355.582 199.842 355.65 200.096C355.723 200.345 355.76 200.604 355.76 200.873C355.76 201.385 355.672 201.837 355.496 202.228C355.321 202.618 355.069 202.945 354.742 203.209C354.415 203.473 354.017 203.67 353.548 203.802C353.079 203.934 352.552 204 351.966 204H348.077ZM350.142 199.298V202.337H351.973C352.535 202.333 352.962 202.196 353.255 201.927C353.553 201.654 353.702 201.297 353.702 200.858C353.707 200.37 353.575 199.989 353.306 199.715C353.038 199.442 352.623 199.303 352.061 199.298H350.142ZM350.142 197.811H351.673C352.244 197.806 352.684 197.687 352.992 197.452C353.299 197.218 353.455 196.874 353.46 196.419C353.46 195.921 353.306 195.565 352.999 195.35C352.691 195.13 352.247 195.018 351.666 195.013H350.142V197.811ZM369.213 199.327H364.833V202.337H369.953V204H362.768V193.336H369.931V195.013H364.833V197.701H369.213V199.327ZM380.827 200.016H379.267V204H377.209V193.336H380.783C381.374 193.336 381.909 193.407 382.387 193.548C382.866 193.685 383.274 193.888 383.611 194.156C383.952 194.425 384.214 194.759 384.394 195.16C384.58 195.56 384.673 196.024 384.673 196.551C384.673 196.932 384.626 197.276 384.533 197.584C384.445 197.887 384.316 198.16 384.145 198.404C383.979 198.644 383.777 198.854 383.537 199.034C383.303 199.215 383.039 199.371 382.746 199.503L385.039 203.905V204H382.834L380.827 200.016ZM379.267 198.346H380.791C381.372 198.346 381.819 198.199 382.131 197.906C382.448 197.608 382.607 197.203 382.607 196.69C382.607 196.158 382.453 195.746 382.146 195.453C381.838 195.155 381.384 195.006 380.783 195.006H379.267V198.346Z" fill="white" fill-opacity="0.81"/>
<path d="M181.214 45.4922L181.224 54.4448C181.224 55.1994 181.118 55.8704 180.908 56.458C180.704 57.0456 180.404 57.5435 180.008 57.9517C179.619 58.3537 179.139 58.6598 178.57 58.8701C178.007 59.0804 177.364 59.1855 176.641 59.1855C175.96 59.1855 175.345 59.0804 174.794 58.8701C174.25 58.6598 173.783 58.3537 173.394 57.9517C173.004 57.5496 172.701 57.0549 172.484 56.4673C172.274 55.8735 172.169 55.1994 172.169 54.4448L172.178 45.4922H174.785L174.794 54.4448C174.801 55.3169 174.958 55.9756 175.268 56.4209C175.583 56.8662 176.041 57.0889 176.641 57.0889C177.278 57.0889 177.763 56.8662 178.097 56.4209C178.437 55.9756 178.611 55.3169 178.617 54.4448L178.626 45.4922H181.214ZM192.64 55.4746C192.64 55.2334 192.597 55.0076 192.51 54.7974C192.43 54.5871 192.288 54.3923 192.083 54.2129C191.886 54.0273 191.623 53.8604 191.295 53.7119C190.973 53.5573 190.571 53.415 190.089 53.2852C189.501 53.1243 188.938 52.9233 188.4 52.6821C187.868 52.4409 187.398 52.1502 186.99 51.8101C186.582 51.4699 186.254 51.0741 186.007 50.6226C185.766 50.1711 185.645 49.6515 185.645 49.064C185.645 48.495 185.766 47.9785 186.007 47.5146C186.248 47.0508 186.582 46.6549 187.009 46.3271C187.436 45.9993 187.94 45.7489 188.521 45.5757C189.102 45.3963 189.733 45.3066 190.414 45.3066C191.119 45.3066 191.762 45.4087 192.343 45.6128C192.931 45.8169 193.435 46.1045 193.855 46.4756C194.276 46.8405 194.604 47.2765 194.839 47.7837C195.074 48.2909 195.191 48.8475 195.191 49.4536H192.649C192.637 49.1506 192.581 48.8722 192.482 48.6187C192.39 48.3651 192.247 48.1486 192.056 47.9692C191.87 47.7837 191.635 47.6414 191.351 47.5425C191.072 47.4373 190.744 47.3848 190.367 47.3848C190.021 47.3848 189.712 47.4281 189.439 47.5146C189.174 47.5951 188.948 47.7126 188.762 47.8672C188.577 48.0156 188.434 48.195 188.335 48.4053C188.243 48.6094 188.196 48.832 188.196 49.0732C188.196 49.3268 188.258 49.5557 188.382 49.7598C188.512 49.9639 188.697 50.1494 188.938 50.3164C189.18 50.4772 189.47 50.6257 189.811 50.7617C190.157 50.8978 190.547 51.0246 190.979 51.1421C191.598 51.3215 192.167 51.541 192.687 51.8008C193.206 52.0605 193.651 52.3698 194.022 52.7285C194.4 53.0811 194.69 53.4862 194.895 53.9438C195.105 54.3953 195.21 54.8994 195.21 55.4561C195.21 56.0498 195.089 56.5786 194.848 57.0425C194.613 57.5002 194.285 57.8898 193.865 58.2114C193.444 58.5269 192.943 58.7681 192.362 58.9351C191.78 59.0959 191.146 59.1763 190.46 59.1763C190.033 59.1763 189.606 59.1361 189.18 59.0557C188.759 58.9814 188.354 58.8639 187.964 58.7031C187.581 58.5423 187.222 58.3413 186.888 58.1001C186.554 57.8589 186.264 57.5775 186.016 57.2559C185.775 56.9342 185.583 56.5693 185.441 56.1611C185.305 55.7529 185.237 55.3014 185.237 54.8066H187.797C187.81 55.2148 187.881 55.5643 188.011 55.855C188.141 56.1457 188.32 56.3838 188.549 56.5693C188.784 56.7549 189.062 56.891 189.384 56.9775C189.712 57.0641 190.07 57.1074 190.46 57.1074C190.806 57.1074 191.112 57.0672 191.378 56.9868C191.651 56.9064 191.879 56.7951 192.065 56.6528C192.25 56.5106 192.393 56.3405 192.492 56.1426C192.591 55.9385 192.64 55.7158 192.64 55.4746ZM207.35 53.0811H201.802V56.894H208.287V59H199.186V45.4922H208.259V47.6167H201.802V51.0215H207.35V53.0811ZM235.787 47.6167H231.621V59H229.005V47.6167H224.895V45.4922H235.787V47.6167ZM248.187 59H245.607V53.146H241.785V59H239.197V45.4922H241.785V51.0308H245.607V45.4922H248.187V59ZM260.995 53.0811H255.447V56.894H261.932V59H252.831V45.4922H261.904V47.6167H255.447V51.0215H260.995V53.0811ZM180.788 79.4058H174.999V85H172.382V71.4922H181.511V73.6167H174.999V77.2905H180.788V79.4058ZM195.052 79.2388C195.052 80.1047 194.938 80.9025 194.709 81.6323C194.48 82.3621 194.149 82.9899 193.716 83.5156C193.283 84.0413 192.755 84.4526 192.13 84.7495C191.511 85.0402 190.812 85.1855 190.033 85.1855C189.254 85.1855 188.561 85.0402 187.955 84.7495C187.349 84.4526 186.839 84.0413 186.424 83.5156C186.01 82.9837 185.694 82.356 185.478 81.6323C185.262 80.9025 185.153 80.1047 185.153 79.2388V77.272C185.153 76.4061 185.262 75.6082 185.478 74.8784C185.694 74.1486 186.01 73.5208 186.424 72.9951C186.839 72.4632 187.346 72.0488 187.946 71.752C188.552 71.4551 189.245 71.3066 190.024 71.3066C190.809 71.3066 191.511 71.4551 192.13 71.752C192.755 72.0488 193.283 72.4632 193.716 72.9951C194.149 73.5208 194.48 74.1486 194.709 74.8784C194.938 75.6082 195.052 76.4061 195.052 77.272V79.2388ZM192.408 77.2534C192.408 76.703 192.362 76.1958 192.269 75.7319C192.182 75.2681 192.043 74.8691 191.852 74.5352C191.66 74.2012 191.412 73.9414 191.109 73.7559C190.812 73.5641 190.451 73.4683 190.024 73.4683C189.603 73.4683 189.251 73.5641 188.966 73.7559C188.682 73.9414 188.453 74.2012 188.28 74.5352C188.107 74.8691 187.983 75.2681 187.909 75.7319C187.834 76.1958 187.797 76.703 187.797 77.2534V79.2388C187.797 79.783 187.834 80.2871 187.909 80.751C187.983 81.2148 188.107 81.6169 188.28 81.957C188.453 82.2972 188.682 82.5632 188.966 82.7549C189.251 82.9466 189.606 83.0425 190.033 83.0425C190.454 83.0425 190.812 82.9466 191.109 82.7549C191.412 82.5632 191.657 82.3003 191.842 81.9663C192.034 81.6261 192.176 81.2241 192.269 80.7603C192.362 80.2964 192.408 79.7892 192.408 79.2388V77.2534ZM201.83 82.894H208.157V85H199.214V71.4922H201.83V82.894ZM215.241 82.894H221.568V85H212.625V71.4922H215.241V82.894ZM235.286 79.2388C235.286 80.1047 235.171 80.9025 234.942 81.6323C234.714 82.3621 234.383 82.9899 233.95 83.5156C233.517 84.0413 232.988 84.4526 232.363 84.7495C231.745 85.0402 231.046 85.1855 230.267 85.1855C229.487 85.1855 228.795 85.0402 228.188 84.7495C227.582 84.4526 227.072 84.0413 226.658 83.5156C226.243 82.9837 225.928 82.356 225.711 81.6323C225.495 80.9025 225.387 80.1047 225.387 79.2388V77.272C225.387 76.4061 225.495 75.6082 225.711 74.8784C225.928 74.1486 226.243 73.5208 226.658 72.9951C227.072 72.4632 227.579 72.0488 228.179 71.752C228.785 71.4551 229.478 71.3066 230.257 71.3066C231.043 71.3066 231.745 71.4551 232.363 71.752C232.988 72.0488 233.517 72.4632 233.95 72.9951C234.383 73.5208 234.714 74.1486 234.942 74.8784C235.171 75.6082 235.286 76.4061 235.286 77.272V79.2388ZM232.642 77.2534C232.642 76.703 232.595 76.1958 232.502 75.7319C232.416 75.2681 232.277 74.8691 232.085 74.5352C231.893 74.2012 231.646 73.9414 231.343 73.7559C231.046 73.5641 230.684 73.4683 230.257 73.4683C229.837 73.4683 229.484 73.5641 229.2 73.7559C228.915 73.9414 228.686 74.2012 228.513 74.5352C228.34 74.8691 228.216 75.2681 228.142 75.7319C228.068 76.1958 228.031 76.703 228.031 77.2534V79.2388C228.031 79.783 228.068 80.2871 228.142 80.751C228.216 81.2148 228.34 81.6169 228.513 81.957C228.686 82.2972 228.915 82.5632 229.2 82.7549C229.484 82.9466 229.84 83.0425 230.267 83.0425C230.687 83.0425 231.046 82.9466 231.343 82.7549C231.646 82.5632 231.89 82.3003 232.076 81.9663C232.267 81.6261 232.41 81.2241 232.502 80.7603C232.595 80.2964 232.642 79.7892 232.642 79.2388V77.2534ZM245.876 79.6284L246.86 71.4922H249.253L247.379 85H245.023L243.743 77.0215L242.509 85H240.152L238.297 71.4922H240.681L241.646 79.5728L242.796 71.4922H244.661L245.876 79.6284ZM253.257 71.4922H261.069V73.5981H258.434V82.9033H261.069V85H253.257V82.9033H255.827V73.5981H253.257V71.4922ZM275 85H272.402L268.645 76.2886V85H266.019V71.4922H268.645L272.374 80.1665L272.383 71.4922H275V85ZM288.791 83.4229C288.624 83.627 288.395 83.8341 288.104 84.0444C287.814 84.2547 287.467 84.4465 287.065 84.6196C286.67 84.7866 286.224 84.9227 285.729 85.0278C285.235 85.133 284.703 85.1855 284.134 85.1855C283.367 85.1855 282.674 85.0495 282.056 84.7773C281.437 84.5052 280.908 84.1125 280.469 83.5991C280.03 83.0858 279.69 82.458 279.449 81.7158C279.214 80.9674 279.096 80.1201 279.096 79.1738V77.3369C279.096 76.3906 279.22 75.5464 279.467 74.8042C279.721 74.0558 280.067 73.4219 280.506 72.9023C280.952 72.3828 281.471 71.987 282.065 71.7148C282.665 71.4427 283.314 71.3066 284.013 71.3066C284.774 71.3066 285.436 71.4025 285.999 71.5942C286.568 71.786 287.047 72.0643 287.437 72.4292C287.826 72.7879 288.129 73.2271 288.346 73.7466C288.568 74.2661 288.714 74.8506 288.782 75.5H286.24C286.153 74.8073 285.943 74.2878 285.609 73.9414C285.281 73.5889 284.771 73.4126 284.078 73.4126C283.744 73.4126 283.435 73.4992 283.15 73.6724C282.866 73.8394 282.618 74.0868 282.408 74.4146C282.198 74.7424 282.031 75.1506 281.907 75.6392C281.784 76.1216 281.722 76.6813 281.722 77.3184V79.1738C281.728 80.4355 281.938 81.4035 282.353 82.0776C282.767 82.7456 283.401 83.0827 284.254 83.0889C284.458 83.0889 284.66 83.0734 284.857 83.0425C285.055 83.0116 285.241 82.9683 285.414 82.9126C285.587 82.8569 285.739 82.7951 285.869 82.7271C286.005 82.6528 286.107 82.5755 286.175 82.4951L286.184 80.0459H283.948V78.0977H288.782L288.791 83.4229ZM315.706 80.7695C315.663 81.4499 315.514 82.0622 315.261 82.6064C315.013 83.1507 314.679 83.6146 314.259 83.998C313.838 84.3815 313.337 84.6784 312.756 84.8887C312.174 85.0928 311.531 85.1948 310.826 85.1948C310.028 85.1948 309.32 85.0495 308.702 84.7588C308.083 84.4619 307.564 84.0506 307.143 83.5249C306.722 82.993 306.401 82.356 306.178 81.6138C305.956 80.8716 305.844 80.0552 305.844 79.1646V77.3462C305.844 76.4494 305.962 75.6299 306.197 74.8877C306.432 74.1455 306.766 73.5085 307.199 72.9766C307.632 72.4447 308.154 72.0334 308.767 71.7427C309.385 71.4458 310.078 71.2974 310.845 71.2974C311.587 71.2974 312.246 71.4025 312.821 71.6128C313.402 71.8231 313.897 72.123 314.305 72.5127C314.713 72.9023 315.035 73.3786 315.27 73.9414C315.505 74.5042 315.653 75.1382 315.715 75.8433H313.118C313.093 75.4412 313.031 75.0887 312.932 74.7856C312.839 74.4826 312.7 74.2321 312.515 74.0342C312.335 73.8301 312.106 73.6785 311.828 73.5796C311.556 73.4744 311.228 73.4219 310.845 73.4219C310.443 73.4219 310.093 73.5085 309.796 73.6816C309.5 73.8548 309.252 74.1084 309.054 74.4424C308.862 74.7764 308.72 75.1877 308.627 75.6763C308.535 76.1587 308.488 76.7091 308.488 77.3276V79.1646C308.488 80.4943 308.674 81.4777 309.045 82.1147C309.422 82.7518 310.016 83.0703 310.826 83.0703C311.507 83.0703 312.045 82.891 312.44 82.5322C312.836 82.1673 313.056 81.5798 313.099 80.7695H315.706ZM329.164 79.2388C329.164 80.1047 329.049 80.9025 328.82 81.6323C328.591 82.3621 328.261 82.9899 327.828 83.5156C327.395 84.0413 326.866 84.4526 326.241 84.7495C325.623 85.0402 324.924 85.1855 324.145 85.1855C323.365 85.1855 322.673 85.0402 322.066 84.7495C321.46 84.4526 320.95 84.0413 320.536 83.5156C320.121 82.9837 319.806 82.356 319.589 81.6323C319.373 80.9025 319.265 80.1047 319.265 79.2388V77.272C319.265 76.4061 319.373 75.6082 319.589 74.8784C319.806 74.1486 320.121 73.5208 320.536 72.9951C320.95 72.4632 321.457 72.0488 322.057 71.752C322.663 71.4551 323.356 71.3066 324.135 71.3066C324.921 71.3066 325.623 71.4551 326.241 71.752C326.866 72.0488 327.395 72.4632 327.828 72.9951C328.261 73.5208 328.591 74.1486 328.82 74.8784C329.049 75.6082 329.164 76.4061 329.164 77.272V79.2388ZM326.52 77.2534C326.52 76.703 326.473 76.1958 326.38 75.7319C326.294 75.2681 326.155 74.8691 325.963 74.5352C325.771 74.2012 325.524 73.9414 325.221 73.7559C324.924 73.5641 324.562 73.4683 324.135 73.4683C323.715 73.4683 323.362 73.5641 323.078 73.7559C322.793 73.9414 322.564 74.2012 322.391 74.5352C322.218 74.8691 322.094 75.2681 322.02 75.7319C321.946 76.1958 321.909 76.703 321.909 77.2534V79.2388C321.909 79.783 321.946 80.2871 322.02 80.751C322.094 81.2148 322.218 81.6169 322.391 81.957C322.564 82.2972 322.793 82.5632 323.078 82.7549C323.362 82.9466 323.718 83.0425 324.145 83.0425C324.565 83.0425 324.924 82.9466 325.221 82.7549C325.524 82.5632 325.768 82.3003 325.954 81.9663C326.145 81.6261 326.288 81.2241 326.38 80.7603C326.473 80.2964 326.52 79.7892 326.52 79.2388V77.2534ZM333.093 85V71.4922H336.591C337.488 71.4922 338.298 71.6468 339.021 71.9561C339.751 72.2591 340.373 72.6859 340.886 73.2363C341.406 73.7806 341.805 74.4331 342.083 75.1938C342.368 75.9546 342.51 76.7896 342.51 77.6987V78.812C342.51 79.7212 342.368 80.5562 342.083 81.3169C341.805 82.0715 341.412 82.724 340.905 83.2744C340.398 83.8187 339.788 84.2424 339.077 84.5454C338.366 84.8485 337.58 85 336.721 85H333.093ZM335.719 73.6074V82.9033H336.721C337.209 82.9033 337.645 82.8105 338.029 82.625C338.418 82.4395 338.746 82.1704 339.012 81.8179C339.284 81.4653 339.492 81.0386 339.634 80.5376C339.776 80.0304 339.847 79.4552 339.847 78.812V77.6802C339.847 77.0741 339.776 76.5236 339.634 76.0288C339.498 75.5278 339.291 75.098 339.012 74.7393C338.74 74.3805 338.4 74.1022 337.992 73.9043C337.59 73.7064 337.123 73.6074 336.591 73.6074H335.719ZM354.873 79.0811H349.325V82.894H355.81V85H346.708V71.4922H355.782V73.6167H349.325V77.0215H354.873V79.0811Z" fill="white" fill-opacity="0.83"/>
<defs>
<filter id="filter0_d" x="0.5" y="0" width="503" height="239" filterUnits="userSpaceOnUse" color-interpolation-filters="sRGB">
<feFlood flood-opacity="0" result="BackgroundImageFix"/>
<feColorMatrix in="SourceAlpha" type="matrix" values="0 0 0 0 0 0 0 0 0 0 0 0 0 0 0 0 0 0 127 0"/>
<feOffset dy="4"/>
<feGaussianBlur stdDeviation="11"/>
<feColorMatrix type="matrix" values="0 0 0 0 0.00436681 0 0 0 0 0.00392822 0 0 0 0 0.00392822 0 0 0 0.32 0"/>
<feBlend mode="normal" in2="BackgroundImageFix" result="effect1_dropShadow"/>
<feBlend mode="normal" in="SourceGraphic" in2="effect1_dropShadow" result="shape"/>
</filter>
</defs>
</svg>
