<svg width="209" height="209" viewBox="0 0 209 209" fill="none" xmlns="http://www.w3.org/2000/svg">
<rect width="209" height="209" rx="22" fill="white" fill-opacity="0.07"/>
<path d="M104.5 158C90.3109 158 76.703 152.363 66.6698 142.33C56.6366 132.297 51 118.689 51 104.5C51 90.3109 56.6366 76.703 66.6698 66.6698C76.7029 56.6366 90.3109 51 104.5 51L104.5 104.5L104.5 158Z" fill="#FFDB67" fill-opacity="0.68"/>
<path d="M104.5 158C118.689 158 132.297 152.363 142.33 142.33C152.363 132.297 158 118.689 158 104.5C158 90.3109 152.363 76.703 142.33 66.6698C132.297 56.6366 118.689 51 104.5 51L104.5 104.5L104.5 158Z" fill="#FFDB67"/>
</svg>
