<svg width="189" height="173" viewBox="0 0 189 173" fill="none" xmlns="http://www.w3.org/2000/svg">
<rect x="25.2622" width="139.244" height="121.663" rx="8" fill="#F2F2F2"/>
<path d="M25.2622 8C25.2622 3.58173 28.8439 0 33.2622 0H156.506C160.924 0 164.506 3.58172 164.506 8V9.4939H25.2622V8Z" fill="#C5CFD6"/>
<path fill-rule="evenodd" clip-rule="evenodd" d="M29.8333 6.32926C30.6101 6.32926 31.2398 5.69955 31.2398 4.92276C31.2398 4.14597 30.6101 3.51625 29.8333 3.51625C29.0565 3.51625 28.4268 4.14597 28.4268 4.92276C28.4268 5.69955 29.0565 6.32926 29.8333 6.32926Z" fill="#F2F2F2"/>
<path fill-rule="evenodd" clip-rule="evenodd" d="M34.0528 6.32927C34.8296 6.32927 35.4593 5.69955 35.4593 4.92276C35.4593 4.14597 34.8296 3.51626 34.0528 3.51626C33.2761 3.51626 32.6463 4.14597 32.6463 4.92276C32.6463 5.69955 33.2761 6.32927 34.0528 6.32927Z" fill="#F2F2F2"/>
<path fill-rule="evenodd" clip-rule="evenodd" d="M38.2724 6.32927C39.0491 6.32927 39.6789 5.69955 39.6789 4.92276C39.6789 4.14597 39.0491 3.51626 38.2724 3.51626C37.4956 3.51626 36.8659 4.14597 36.8659 4.92276C36.8659 5.69955 37.4956 6.32927 38.2724 6.32927Z" fill="#F2F2F2"/>
<rect x="134.266" y="46.4146" width="24.6138" height="68.2154" rx="8" fill="white"/>
<rect x="140.596" y="52.7439" width="11.9553" height="9.14228" rx="4" fill="#DDE3E9"/>
<rect x="140.596" y="64.6992" width="11.9553" height="8.79065" rx="4" fill="#AFB9C5"/>
<rect x="140.596" y="76.3028" width="11.9553" height="8.79065" rx="4" fill="#DDE3E9"/>
<rect x="140.596" y="99.5102" width="11.9553" height="8.79065" rx="4" fill="#DDE3E9"/>
<rect x="140.596" y="87.9065" width="11.9553" height="8.79065" rx="4" fill="#C5CFD6"/>
<rect x="134.266" y="15.1199" width="24.6138" height="28.4817" rx="8" fill="white"/>
<path fill-rule="evenodd" clip-rule="evenodd" d="M146.573 31.6463C149.68 31.6463 152.199 29.1275 152.199 26.0203C152.199 22.9132 149.68 20.3943 146.573 20.3943C143.466 20.3943 140.947 22.9132 140.947 26.0203C140.947 29.1275 143.466 31.6463 146.573 31.6463Z" fill="#DDE3E9"/>
<rect x="137.783" y="33.0528" width="17.5813" height="2.10976" rx="1.05488" fill="#DDE3E9"/>
<rect x="140.596" y="36.5691" width="11.9553" height="2.10976" rx="1.05488" fill="#DDE3E9"/>
<rect x="30.8882" y="15.1199" width="100.565" height="16.5264" rx="4" fill="white"/>
<rect x="34.0528" y="20.0779" width="80.1707" height="2.47896" rx="1.23948" fill="#DDE3E9"/>
<rect x="34.0528" y="24.2094" width="53.8132" height="2.47896" rx="1.23948" fill="#DDE3E9"/>
<path fill-rule="evenodd" clip-rule="evenodd" d="M120.706 25.8445C122.065 25.8445 123.167 24.7425 123.167 23.3831C123.167 22.0237 122.065 20.9217 120.706 20.9217C119.346 20.9217 118.244 22.0237 118.244 23.3831C118.244 24.7425 119.346 25.8445 120.706 25.8445Z" fill="#DDE3E9"/>
<path fill-rule="evenodd" clip-rule="evenodd" d="M120.706 24.438C121.288 24.438 121.761 23.9657 121.761 23.3831C121.761 22.8005 121.288 22.3283 120.706 22.3283C120.123 22.3283 119.651 22.8005 119.651 23.3831C119.651 23.9657 120.123 24.438 120.706 24.438Z" fill="#F2F2F2"/>
<rect x="30.8882" y="34.4594" width="100.565" height="13.7134" rx="4" fill="white"/>
<rect x="34.0528" y="38.5734" width="80.1707" height="2.05701" rx="1.02851" fill="#DDE3E9"/>
<rect x="34.0528" y="42.0017" width="53.8132" height="2.05701" rx="1.02851" fill="#DDE3E9"/>
<path fill-rule="evenodd" clip-rule="evenodd" d="M120.706 43.7774C122.065 43.7774 123.167 42.6754 123.167 41.316C123.167 39.9567 122.065 38.8547 120.706 38.8547C119.346 38.8547 118.244 39.9567 118.244 41.316C118.244 42.6754 119.346 43.7774 120.706 43.7774Z" fill="#DDE3E9"/>
<path fill-rule="evenodd" clip-rule="evenodd" d="M120.706 42.3709C121.288 42.3709 121.761 41.8986 121.761 41.316C121.761 40.7335 121.288 40.2612 120.706 40.2612C120.123 40.2612 119.651 40.7335 119.651 41.316C119.651 41.8986 120.123 42.3709 120.706 42.3709Z" fill="#F2F2F2"/>
<rect x="30.8882" y="50.9858" width="100.565" height="13.7134" rx="4" fill="white"/>
<rect x="34.0528" y="55.0998" width="80.1707" height="2.05701" rx="1.02851" fill="#DDE3E9"/>
<rect x="34.0528" y="58.5282" width="53.8132" height="2.05701" rx="1.02851" fill="#DDE3E9"/>
<path fill-rule="evenodd" clip-rule="evenodd" d="M120.706 60.3039C122.065 60.3039 123.167 59.2019 123.167 57.8425C123.167 56.4831 122.065 55.3811 120.706 55.3811C119.346 55.3811 118.244 56.4831 118.244 57.8425C118.244 59.2019 119.346 60.3039 120.706 60.3039Z" fill="#DDE3E9"/>
<path fill-rule="evenodd" clip-rule="evenodd" d="M120.706 58.8974C121.288 58.8974 121.761 58.4251 121.761 57.8425C121.761 57.2599 121.288 56.7876 120.706 56.7876C120.123 56.7876 119.651 57.2599 119.651 57.8425C119.651 58.4251 120.123 58.8974 120.706 58.8974Z" fill="#AFB9C5"/>
<rect x="30.8882" y="100.565" width="100.565" height="13.7134" rx="4" fill="white"/>
<rect x="34.0528" y="104.679" width="80.1707" height="2.05701" rx="1.02851" fill="#DDE3E9"/>
<rect x="34.0528" y="108.107" width="53.8132" height="2.05701" rx="1.02851" fill="#DDE3E9"/>
<path fill-rule="evenodd" clip-rule="evenodd" d="M120.706 109.883C122.065 109.883 123.167 108.781 123.167 107.422C123.167 106.062 122.065 104.96 120.706 104.96C119.346 104.96 118.244 106.062 118.244 107.422C118.244 108.781 119.346 109.883 120.706 109.883Z" fill="#DDE3E9"/>
<path fill-rule="evenodd" clip-rule="evenodd" d="M120.706 108.477C121.288 108.477 121.761 108.004 121.761 107.422C121.761 106.839 121.288 106.367 120.706 106.367C120.123 106.367 119.651 106.839 119.651 107.422C119.651 108.004 120.123 108.477 120.706 108.477Z" fill="#F2F2F2"/>
<rect x="30.8882" y="84.0386" width="100.565" height="13.7134" rx="4" fill="white"/>
<rect x="34.0528" y="88.1526" width="80.1707" height="2.05701" rx="1.02851" fill="#DDE3E9"/>
<rect x="34.0528" y="91.581" width="53.8132" height="2.05701" rx="1.02851" fill="#DDE3E9"/>
<path fill-rule="evenodd" clip-rule="evenodd" d="M120.706 93.3567C122.065 93.3567 123.167 92.2547 123.167 90.8953C123.167 89.5359 122.065 88.4339 120.706 88.4339C119.346 88.4339 118.244 89.5359 118.244 90.8953C118.244 92.2547 119.346 93.3567 120.706 93.3567Z" fill="#DDE3E9"/>
<path fill-rule="evenodd" clip-rule="evenodd" d="M120.706 91.9502C121.288 91.9502 121.761 91.4779 121.761 90.8953C121.761 90.3127 121.288 89.8404 120.706 89.8404C120.123 89.8404 119.651 90.3127 119.651 90.8953C119.651 91.4779 120.123 91.9502 120.706 91.9502Z" fill="#F2F2F2"/>
<rect x="30.8882" y="67.5122" width="100.565" height="13.7134" rx="4" fill="white"/>
<rect x="34.0528" y="71.6262" width="80.1707" height="2.05701" rx="1.02851" fill="#DDE3E9"/>
<rect x="34.0528" y="75.0546" width="53.8132" height="2.05701" rx="1.02851" fill="#DDE3E9"/>
<path fill-rule="evenodd" clip-rule="evenodd" d="M120.706 76.8303C122.065 76.8303 123.167 75.7283 123.167 74.3689C123.167 73.0095 122.065 71.9075 120.706 71.9075C119.346 71.9075 118.244 73.0095 118.244 74.3689C118.244 75.7283 119.346 76.8303 120.706 76.8303Z" fill="#DDE3E9"/>
<path fill-rule="evenodd" clip-rule="evenodd" d="M120.706 75.4238C121.288 75.4238 121.761 74.9515 121.761 74.3689C121.761 73.7863 121.288 73.314 120.706 73.314C120.123 73.314 119.651 73.7863 119.651 74.3689C119.651 74.9515 120.123 75.4238 120.706 75.4238Z" fill="#F2F2F2"/>
<path fill-rule="evenodd" clip-rule="evenodd" d="M43.9494 64.1048C46.1257 65.0287 48.1794 65.3343 49.0715 64.9663C51.3087 64.0437 50.3323 55.5485 48.0675 52.4637C45.8027 49.3789 36.3662 49.2218 36.8301 55.8993C36.9912 58.2168 38.2455 60.129 39.9084 61.5994L39.0201 73.8577L46.4577 72.8124L43.9494 64.1048Z" fill="#B28B67"/>
<path fill-rule="evenodd" clip-rule="evenodd" d="M44.6189 49.2419C43.5591 49.0757 42.0691 49.1783 41.4584 49.3364C41.693 48.4435 41.701 47.4842 41.4582 46.5855C41.2223 45.7122 40.7175 45.0113 40.2376 44.2699C40.0164 43.9282 39.7728 43.5917 39.4465 43.3524C39.1142 43.1086 38.7177 42.9726 38.3171 42.9374C37.9071 42.9014 37.4929 42.9674 37.1069 43.1066C36.9362 43.1682 36.7896 43.2706 36.6233 43.3394C36.453 43.4099 36.3518 43.3117 36.208 43.2189C35.8614 42.9954 35.3897 42.9272 34.9921 42.935C34.546 42.9438 34.1 43.0737 33.7018 43.2763C33.3142 43.4735 32.955 43.7558 32.7071 44.1283C32.5967 44.2941 32.5013 44.4786 32.4499 44.6747C32.4289 44.7552 32.43 44.801 32.3578 44.8395C32.2911 44.8752 32.2089 44.8875 32.1397 44.9222C31.4709 45.258 30.9465 45.8833 30.7172 46.6238C30.5835 47.0558 30.5934 47.7818 30.7305 48.5779C30.8676 49.374 31.885 51.3586 32.6692 52.0244C33.3692 52.6187 34.3209 52.942 35.2061 53.0177C34.728 53.7464 34.463 54.6103 34.2986 55.474C34.1201 56.4123 34.0625 57.3693 34.1262 58.3271C34.1868 59.2372 34.3145 60.1906 34.6502 61.0424C34.9642 61.8389 35.483 62.4557 36.2507 62.7853C36.6023 62.9363 36.9717 63.0349 37.3413 63.1206C37.7056 63.205 38.0703 63.2856 38.4428 63.3093C39.1477 63.3542 39.9337 63.219 40.385 62.6012C40.5476 62.3785 40.7222 62.1028 40.8273 61.8439C40.8651 61.7508 40.8873 61.6902 40.8148 61.6146C40.7281 61.524 40.5997 61.4633 40.4954 61.3975C39.9002 61.0227 39.4866 60.4688 39.3033 59.7672C39.1174 59.0553 39.1811 58.0938 39.8425 57.6788C40.6588 57.1665 41.6811 57.4791 42.5141 57.7875C42.6804 56.5833 43.2096 55.4457 44.1943 54.7657C45.2837 54.0133 46.6189 53.7556 47.7524 53.0821C48.0478 52.9066 48.3465 52.7126 48.5399 52.4124C48.6208 52.2869 48.7136 52.1259 48.7314 51.9725C48.7547 51.771 48.6061 51.6257 48.4877 51.4878C47.8598 50.7568 45.6786 49.408 44.6189 49.2419Z" fill="#191847"/>
<path fill-rule="evenodd" clip-rule="evenodd" d="M41.6831 98.4305L64.9371 137.19L82.3709 169.958H86.126L56.9154 98.4305L41.6831 98.4305Z" fill="#997659"/>
<path fill-rule="evenodd" clip-rule="evenodd" d="M82.3466 168.592C81.2068 168.332 79.9049 168.727 79.6444 169.867C79.5867 170.119 79.5497 170.353 79.5497 170.537C79.5497 171.381 79.8318 173 79.8318 173C80.8138 173 97.4826 173 97.4826 173C97.4826 173 98.1706 170.732 96.6882 170.551C95.2059 170.371 94.2254 170.225 94.2254 170.225L86.6655 166.865C86.1514 166.636 85.5501 166.877 85.3352 167.396L85.0774 168.02C85.0774 168.02 83.7051 168.658 82.8472 168.658C82.6999 168.658 82.5289 168.633 82.3466 168.592Z" fill="#E4E4E4"/>
<path fill-rule="evenodd" clip-rule="evenodd" d="M77.5291 164.711L84.7707 162.527C84.7707 162.527 80.0116 148.342 73.1047 131.308C66.1979 114.274 58.2693 98.4305 58.2693 98.4305H37.8164C37.8164 98.4305 46.6312 118.471 56.5062 134.85C66.3812 151.228 77.5291 164.711 77.5291 164.711Z" fill="#89C5CC"/>
<path fill-rule="evenodd" clip-rule="evenodd" d="M40.1549 98.4305C37.9602 112.051 33.7271 129.453 33.3276 129.99C33.0613 130.348 23.4736 133.551 4.56443 139.599L5.37557 142.9C27.9247 139.656 39.8061 137.14 41.0199 135.35C42.8406 132.666 51.9317 111.461 55.4528 98.4305H40.1549Z" fill="#B28B67"/>
<path fill-rule="evenodd" clip-rule="evenodd" d="M11.2113 136.745L12.6401 142.062C29.5055 143.537 39.8393 142.471 43.6415 138.865C47.4437 135.259 51.7771 121.781 56.6417 98.4305H37.1386C34.0565 117.551 32.3334 127.513 31.9693 128.316C31.6052 129.119 24.6859 131.928 11.2113 136.745Z" fill="#68A1AC"/>
<path fill-rule="evenodd" clip-rule="evenodd" d="M5.73961 140.494C5.79413 139.323 5.17846 138.104 4.00699 138.047C3.74921 138.035 3.51389 138.039 3.33322 138.071C2.49958 138.218 0.949218 138.776 0.949218 138.776C1.11974 139.74 4.01424 156.106 4.01424 156.106C4.01424 156.106 6.37374 156.388 6.29494 154.901C6.21614 153.414 6.18981 152.426 6.18981 152.426L8.19455 144.426C8.33164 143.879 7.98903 143.327 7.43773 143.206L6.77927 143.061C6.77927 143.061 5.91043 141.825 5.76145 140.982C5.73653 140.841 5.7312 140.674 5.73961 140.494Z" fill="#E4E4E4"/>
<path fill-rule="evenodd" clip-rule="evenodd" d="M63.6835 70.9239L53.7523 78.3093L58.322 82.0016L65.1352 73.7683C69.0936 72.0583 70.8603 70.9661 70.4351 70.4916C70.0766 70.0915 69.6007 70.174 69.1624 70.25C68.8209 70.3092 68.5023 70.3645 68.2796 70.1846C67.7711 69.7737 68.382 68.0015 69.0338 66.3443C69.6857 64.6872 68.7767 64.9512 68.2773 65.2466C66.7059 66.6623 65.1746 68.5547 63.6835 70.9239ZM75.6569 77.6455L71.2957 80.8974L72.2291 85.5869C72.2291 85.5869 74.9798 82.9547 77.5097 81.8529C80.7355 80.4479 81.9935 79.5444 83.341 77.23C84.062 75.9917 84.4919 73.6456 83.5539 73.0331C83.1941 72.7981 82.093 73.6275 80.9696 74.4736C80.1133 75.1185 79.2441 75.7732 78.6801 75.974C77.9209 76.2444 77.8705 75.2213 77.8302 74.4037C77.8012 73.817 77.7775 73.3362 77.5009 73.515C76.1211 73.7331 75.6569 77.6455 75.6569 77.6455Z" fill="#997659"/>
<path fill-rule="evenodd" clip-rule="evenodd" d="M48.3299 77.7371C52.092 77.1679 57.0047 75.6684 61.8887 71.5224L64.6519 75.9073C61.4683 80.0857 56.6913 83.8225 52.1272 84.3342C48.5304 84.7374 46.0921 80.6742 48.3299 77.7371Z" fill="#27325C"/>
<path fill-rule="evenodd" clip-rule="evenodd" d="M42.6754 111.234C39.0281 111.272 35.6767 111.307 33.7802 111.964C30.596 105.186 31.7861 100.469 32.8848 96.1148C33.547 93.4906 34.1759 90.998 33.794 88.2652C32.6816 80.3071 37.3689 67.1581 38.3118 67.0256L38.5824 66.9876L46.055 65.9374L46.9105 65.8172C47.987 70.6873 50.3771 75.7882 52.7825 80.9218C53.3443 82.1207 53.9068 83.3214 54.4537 84.5213C60.9016 85.0573 74.086 78.1842 74.086 78.1842C74.086 78.1842 78.6044 84.9172 78.7725 88.0313C71.2869 93.3727 64.628 96.221 58.9422 97.1463C59.5976 100.495 59.6369 103.763 58.6654 106.891C57.3638 111.082 49.5014 111.163 42.6754 111.234Z" fill="#303D72"/>
<path fill-rule="evenodd" clip-rule="evenodd" d="M135.819 64.0216C133.956 65.4773 132.051 66.304 131.094 66.1795C128.695 65.8673 127.439 57.4089 128.828 53.843C130.217 50.2771 139.292 47.683 140.572 54.2531C141.016 56.5333 140.299 58.705 139.074 60.5557L143.104 72.1663L135.65 73.0817L135.819 64.0216Z" fill="#FBAD83"/>
<path fill-rule="evenodd" clip-rule="evenodd" d="M132.604 49.4662C133.567 49.1849 136.199 48.7496 136.686 48.6898C136.998 48.6515 137.345 48.6811 137.494 48.373C137.617 48.1207 137.513 47.7322 137.525 47.4554C137.539 47.1339 137.575 46.8138 137.612 46.4943C137.718 45.5853 137.939 44.7057 138.295 43.8615C138.964 42.2777 140.068 40.966 141.558 40.0986C143.204 39.1408 145.148 38.729 147.035 38.6505C149.055 38.5666 150.946 39.0024 152.91 39.3899C154.781 39.7592 156.694 39.7601 158.54 39.2409C160.4 38.7178 161.707 37.5175 163.187 36.3488C164.702 35.1524 166.492 34.2717 168.446 34.1837C170.27 34.1017 172.026 34.6409 173.642 35.4509C175.153 36.2087 176.444 37.1854 177.288 38.6793C178.196 40.2863 178.424 42.1447 177.456 43.7824C176.053 46.1561 173.022 47.0975 170.437 47.3584C168.942 47.5093 167.444 47.4177 165.975 47.0969C164.016 46.6689 162.256 45.7521 160.388 45.0622C159.512 44.7385 158.617 44.4941 157.693 44.3524C156.796 44.2148 155.928 44.2076 155.208 44.8261C154.445 45.4803 153.768 46.1141 152.861 46.5765C151.99 47.0201 151.048 47.3241 150.076 47.4358C148.186 47.6531 146.252 47.295 144.369 47.1273C142.834 46.9905 141.194 46.8677 139.707 47.363C139.086 47.5697 138.189 47.9492 138.04 48.6368C141.995 48.8608 144.1 53.4442 143.439 57.0796C143.082 59.0418 139.816 61.6856 138.318 60.8609C137.369 60.3385 137.797 59.4472 138.072 58.8596C138.6 57.7344 138.659 56.3649 137.356 55.7866C136.233 55.2878 135.315 56.9126 135.294 56.9135C135.004 56.9263 132.346 55.8299 130.382 53.9949C128.705 54.3022 128.312 53.223 128.604 52.2651C128.896 51.3073 131.274 49.855 132.604 49.4662Z" fill="#191847"/>
<path fill-rule="evenodd" clip-rule="evenodd" d="M151.913 98.4305C151.349 106.109 114.997 128.715 114.785 129.349C114.644 129.772 126.1 156.082 126.1 156.082L122.922 157.314C122.922 157.314 105.35 129.449 106.253 126.48C107.545 122.229 134.458 98.5122 134.458 98.5122L151.913 98.4305Z" fill="#FBAD83"/>
<path fill-rule="evenodd" clip-rule="evenodd" d="M125.264 152.121L120.076 154.004C109.136 141.698 104.848 131.544 105.63 126.37C106.411 121.197 133.737 98.4493 133.737 98.4493L152.285 98.4493C151.652 116.231 117.959 129.417 117.508 130.175C117.058 130.932 121.493 138.354 125.264 152.121Z" fill="#2F3676"/>
<path fill-rule="evenodd" clip-rule="evenodd" d="M125.183 156.391C126.166 155.758 127.526 155.685 128.162 156.667C128.302 156.885 128.417 157.091 128.48 157.264C128.77 158.057 129.06 159.675 129.06 159.675C128.137 160.01 112.474 165.694 112.474 165.694C112.474 165.694 111.049 163.797 112.38 163.122C113.711 162.446 114.583 161.975 114.583 161.975L120.533 156.24C120.938 155.85 121.586 155.871 121.967 156.286L122.422 156.784C122.422 156.784 123.931 156.916 124.737 156.623C124.875 156.573 125.027 156.492 125.183 156.391Z" fill="#E4E4E4"/>
<path fill-rule="evenodd" clip-rule="evenodd" d="M147.734 98.4305L163.927 137.19L179.843 169.958H176.088L135.005 98.4305H147.734Z" fill="#FBAD83"/>
<path fill-rule="evenodd" clip-rule="evenodd" d="M177.796 168.592C178.936 168.332 180.238 168.727 180.498 169.867C180.556 170.119 180.593 170.353 180.593 170.537C180.593 171.381 180.311 173 180.311 173C179.329 173 162.66 173 162.66 173C162.66 173 161.972 170.732 163.454 170.551C164.937 170.371 165.917 170.225 165.917 170.225L173.477 166.865C173.991 166.636 174.593 166.877 174.808 167.396L175.065 168.02C175.065 168.02 176.438 168.658 177.296 168.658C177.443 168.658 177.614 168.633 177.796 168.592Z" fill="#E4E4E4"/>
<path fill-rule="evenodd" clip-rule="evenodd" d="M178.406 163.151L170.062 164.711C163.611 155.255 136.611 116.481 133.651 98.4305H152.226C162.112 111.479 172.256 153.538 178.406 163.151Z" fill="#5C63AB"/>
<path fill-rule="evenodd" clip-rule="evenodd" d="M107.268 89.0475L119.128 92.5935L116.097 97.6249L106.877 92.2166C102.572 91.9625 100.538 91.5399 100.775 90.9487C100.975 90.4503 101.451 90.3652 101.888 90.2868C102.23 90.2258 102.548 90.1688 102.696 89.9236C103.033 89.3638 101.852 87.9072 100.672 86.5727C99.4927 85.2382 100.437 85.1757 101.008 85.2826C102.969 86.0759 105.055 87.3309 107.268 89.0475ZM158.586 90.4045L164.797 88.3638C170.506 99.1772 173.843 105.077 174.807 106.064C175.514 106.788 179.522 108.383 182.198 109.17C183.273 109.485 183.159 110.372 182.894 110.683C181.219 112.65 179.39 112.257 177.399 111.83C176.822 111.706 176.232 111.579 175.628 111.506C174.065 111.317 173.699 112.151 173.353 112.94C173.047 113.638 172.757 114.3 171.665 114.184C171.688 113.97 171.719 113.731 171.752 113.472C171.966 111.798 172.282 109.33 171.207 108.05C170.655 107.394 166.448 101.512 158.586 90.4045Z" fill="#FBAD83"/>
<path fill-rule="evenodd" clip-rule="evenodd" d="M138.217 67.5269L135.475 67.3974C130.319 73.7736 129.601 87.6597 125.923 89.9377C122.446 92.0914 117.018 91.0868 110.534 89.6267L109.152 94.0973C115.543 99.4915 128.197 103.158 132.71 99.6237C139.925 93.9733 139.665 76.9876 138.217 67.5269Z" fill="#EDB607"/>
<path fill-rule="evenodd" clip-rule="evenodd" d="M154.057 99.7416C154.057 99.7416 137.903 101.725 130.292 102.66C129.206 102.793 129.219 101.205 129.279 100.396C129.973 91.0691 135.84 80.3863 134.249 67.4259L140.972 65.5125C147.759 73.908 151.094 84.861 154.057 99.7416Z" fill="#DDE3E9"/>
<path fill-rule="evenodd" clip-rule="evenodd" d="M141.336 65.4678L141.414 65.4582C157.95 73.0169 169.04 86.5196 174.685 105.966L169.823 107.551C166.053 104.123 161.211 98.3503 155.296 90.2324C157.427 95.2983 159.173 100.548 160.136 105.597L138.744 108.223C133.321 98.2972 138.7 65.7915 138.7 65.7915L140.177 65.6101L141.336 65.4678Z" fill="#F9C200"/>
<path fill-rule="evenodd" clip-rule="evenodd" d="M82.9869 66.355C82.9866 66.3569 82.9864 66.3587 82.9859 66.361C82.9864 66.3591 82.9861 66.3519 82.9869 66.355" fill="#C5CFD6"/>
<path fill-rule="evenodd" clip-rule="evenodd" d="M82.9859 66.358C82.986 66.3583 82.9859 66.3591 82.986 66.3598C82.9856 66.358 82.9874 66.3522 82.9859 66.358" fill="#C5CFD6"/>
<path fill-rule="evenodd" clip-rule="evenodd" d="M82.9906 66.3261C82.9899 66.3336 82.9884 66.3408 82.9874 66.3483C82.9879 66.3446 82.9886 66.3415 82.9891 66.3377C82.9758 66.4353 82.9839 66.372 82.9906 66.3261" fill="#C5CFD6"/>
<path fill-rule="evenodd" clip-rule="evenodd" d="M82.9881 66.3486C82.9875 66.352 82.987 66.3558 82.9864 66.3592C82.9812 66.3807 82.9881 66.3486 82.9881 66.3486" fill="#C5CFD6"/>
<path fill-rule="evenodd" clip-rule="evenodd" d="M82.9862 66.358C82.9861 66.3577 82.9861 66.3577 82.9864 66.3572C82.9861 66.3577 82.9861 66.3577 82.9862 66.358" fill="#C5CFD6"/>
<path fill-rule="evenodd" clip-rule="evenodd" d="M82.9852 66.3608C82.9841 66.3655 82.9908 66.3428 82.9852 66.3608Z" fill="#C5CFD6"/>
<path fill-rule="evenodd" clip-rule="evenodd" d="M82.986 66.358L82.9865 66.3572C82.9863 66.3576 82.9864 66.358 82.986 66.358" fill="#C5CFD6"/>
<rect x="61.2658" y="52.2783" width="35.1626" height="23.2073" rx="4" transform="rotate(-14 61.2658 52.2783)" fill="#303D72"/>
<path fill-rule="evenodd" clip-rule="evenodd" d="M75.8002 55.6392L69.9585 74.1281L89.638 69.2214L75.8002 55.6392Z" fill="black" fill-opacity="0.2"/>
<path fill-rule="evenodd" clip-rule="evenodd" d="M87.0164 57.4049L81.2447 71.3141L98.6425 66.9763L87.0164 57.4049Z" fill="black" fill-opacity="0.2"/>
<path fill-rule="evenodd" clip-rule="evenodd" d="M90.7784 56.6339C92.5685 56.1876 93.6578 54.3746 93.2115 52.5845C92.7652 50.7945 90.9522 49.7051 89.1621 50.1515C87.3721 50.5978 86.2827 52.4107 86.7291 54.2008C87.1754 55.9909 88.9883 57.0802 90.7784 56.6339Z" fill="white"/>
</svg>
